<?xml version="1.0"?>
<svg xmlns="http://www.w3.org/2000/svg" height="512px" viewBox="-55 0 512 512" width="512px"><path d="m354.605469 31.574219h-84.371094c-6.238281-18.339844-23.628906-31.574219-44.050781-31.574219h-50.367188c-20.421875 0-37.8125 13.234375-44.050781 31.574219h-84.371094c-26.132812 0-47.394531 21.238281-47.394531 47.339843v385.746094c0 26.105469 21.261719 47.339844 47.394531 47.339844h307.214844c26.128906 0 47.390625-21.234375 47.390625-47.339844v-385.746094c0-26.101562-21.261719-47.339843-47.394531-47.339843zm-195.296875 14.9375c0-9.105469 7.40625-16.511719 16.507812-16.511719h50.367188c9.101562 0 16.507812 7.40625 16.507812 16.511719v.128906c0 9.105469-7.40625 16.511719-16.507812 16.511719h-50.367188c-9.101562 0-16.507812-7.40625-16.507812-16.511719zm212.691406 418.148437c0 9.5625-7.804688 17.339844-17.394531 17.339844h-307.210938c-9.589843 0-17.394531-7.777344-17.394531-17.339844v-385.746094c0-9.558593 7.804688-17.339843 17.394531-17.339843h84.371094c6.238281 18.34375 23.628906 31.578125 44.050781 31.578125h50.367188c20.421875 0 37.8125-13.234375 44.046875-31.578125h84.375c9.589843 0 17.394531 7.78125 17.394531 17.339843zm0 0" fill="#FFFFFF"/><path d="m118.996094 155.652344-28.265625 28.265625-8.828125-8.828125c-5.855469-5.859375-15.355469-5.859375-21.210938 0-5.859375 5.855468-5.859375 15.351562 0 21.210937l15.238282 15.242188c4.082031 4.078125 9.441406 6.117187 14.800781 6.117187s10.722656-2.039062 14.804687-6.121094l34.675782-34.675781c5.855468-5.855469 5.855468-15.351562 0-21.210937-5.859376-5.859375-15.355469-5.859375-21.214844 0zm0 0" fill="#FFFFFF"/><path d="m325.859375 172.464844h-145.484375c-8.285156 0-15 6.71875-15 15 0 8.285156 6.714844 15 15 15h145.484375c8.28125 0 15-6.714844 15-15 0-8.28125-6.714844-15-15-15zm0 0" fill="#FFFFFF"/><path d="m118.996094 261.335938-28.265625 28.261718-8.828125-8.828125c-5.855469-5.859375-15.355469-5.859375-21.210938 0-5.859375 5.859375-5.859375 15.355469 0 21.210938l15.238282 15.242187c4.082031 4.082032 9.441406 6.121094 14.800781 6.121094s10.722656-2.039062 14.804687-6.121094l34.675782-34.675781c5.855468-5.859375 5.855468-15.355469 0-21.214844-5.859376-5.855469-15.355469-5.855469-21.214844.003907zm0 0" fill="#FFFFFF"/><path d="m325.859375 278.148438h-145.484375c-8.285156 0-15 6.714843-15 15 0 8.285156 6.714844 15 15 15h145.484375c8.28125 0 15-6.714844 15-15 0-8.285157-6.714844-15-15-15zm0 0" fill="#FFFFFF"/><path d="m118.996094 361.640625-28.265625 28.261719-8.828125-8.828125c-5.855469-5.855469-15.355469-5.855469-21.210938 0-5.859375 5.859375-5.859375 15.355469 0 21.214843l15.238282 15.242188c4.082031 4.078125 9.441406 6.117188 14.800781 6.117188s10.722656-2.039063 14.804687-6.121094l34.675782-34.675782c5.855468-5.859374 5.855468-15.355468 0-21.210937-5.859376-5.859375-15.355469-5.859375-21.214844 0zm0 0" fill="#FFFFFF"/><path d="m325.859375 378.453125h-145.484375c-8.285156 0-15 6.714844-15 15s6.714844 15 15 15h145.484375c8.28125 0 15-6.714844 15-15s-6.714844-15-15-15zm0 0" fill="#FFFFFF"/></svg>
